
<svg version="1.0" xmlns="http://www.w3.org/2000/svg"
 width="300.000000pt" height="300.000000pt" viewBox="0 0 300.000000 300.000000"
 preserveAspectRatio="xMidYMid meet">

<g transform="translate(0.000000,300.000000) scale(0.100000,-0.100000)"
fill="#000000" stroke="none">
<path d="M1438 2572 c-45 -21 -165 -127 -184 -163 -16 -32 -29 -102 -15 -79 9
12 11 12 17 -4 5 -13 9 -15 15 -5 4 7 3 21 -2 30 -5 10 -9 25 -9 35 0 16 1 16
20 -1 19 -17 19 -17 13 20 -4 28 -3 36 6 31 6 -4 14 0 17 9 4 10 9 13 13 6 4
-6 22 10 43 37 20 27 42 49 49 49 8 0 33 10 57 20 32 15 39 22 27 27 -22 8
-23 8 -67 -12z"/>
<path d="M1495 2540 c-10 -11 -15 -20 -12 -20 3 0 -1 -16 -9 -35 -21 -52 -8
-42 21 15 14 28 28 50 31 50 3 0 4 -6 1 -13 -3 -8 -1 -20 4 -28 7 -12 9 -12 9
0 0 22 27 -6 35 -36 5 -21 8 -24 16 -12 8 12 13 10 29 -10 11 -13 20 -33 21
-45 0 -20 1 -20 8 -2 7 18 9 16 19 -11 5 -17 7 -35 4 -39 -4 -4 -1 -4 6 0 8 5
12 -2 12 -24 0 -18 4 -29 10 -25 17 11 11 -11 -11 -39 -11 -14 -24 -24 -29
-21 -5 3 -11 1 -15 -5 -12 -19 -26 -11 -15 9 20 39 8 35 -30 -9 -39 -44 -57
-38 -24 8 8 12 11 22 6 22 -6 0 -13 -8 -17 -17 -7 -17 -8 -16 -15 2 -4 11 -5
34 -3 51 3 17 1 34 -3 37 -5 3 -9 -28 -10 -69 0 -56 -5 -78 -19 -94 -10 -11
-21 -20 -25 -20 -4 0 -15 34 -25 75 -9 41 -21 78 -26 81 -9 5 -1 -51 11 -76 4
-8 10 -33 14 -55 6 -37 5 -39 -9 -21 -8 11 -15 16 -15 10 -1 -20 -30 31 -30
52 0 13 -6 29 -14 36 -7 8 -12 28 -10 48 3 30 2 31 -5 10 -8 -25 -8 -25 -19
10 -5 19 -11 27 -11 16 -1 -10 10 -51 25 -90 23 -65 23 -69 5 -51 -11 11 -31
54 -45 95 -26 79 -36 76 -12 -3 10 -33 10 -45 3 -40 -28 18 -38 10 -17 -12
l23 -24 -32 4 c-35 4 -64 22 -56 35 3 5 1 11 -5 15 -17 11 -11 28 8 20 14 -5
15 -4 5 6 -10 10 -16 10 -25 1 -9 -9 -9 -15 0 -24 15 -15 -3 -48 -26 -48 -34
0 -119 -48 -149 -85 -20 -23 -37 -36 -46 -32 -8 3 -27 -2 -43 -10 -16 -9 -49
-15 -73 -14 -43 2 -81 -18 -81 -44 0 -6 20 -35 45 -64 25 -29 45 -59 45 -67 0
-7 -11 -21 -25 -30 -37 -24 -85 -128 -85 -184 0 -35 -5 -52 -21 -66 -33 -30
-61 -94 -70 -159 -4 -33 -10 -77 -13 -98 -4 -25 -3 -36 4 -32 5 3 10 12 10 18
0 7 9 23 19 36 13 17 17 35 14 61 -6 40 28 120 64 153 19 17 20 16 38 -23 12
-27 23 -39 33 -35 7 3 21 5 30 5 10 1 3 9 -18 21 -19 11 -27 18 -18 15 13 -4
10 5 -12 36 -21 29 -30 53 -30 80 0 22 4 37 9 34 5 -4 7 3 4 14 -3 11 -1 20 5
20 5 0 13 17 17 38 6 31 9 34 15 17 6 -15 9 -16 9 -4 1 22 37 53 51 44 7 -4
25 -28 41 -53 27 -43 28 -47 12 -64 -22 -24 -26 -48 -6 -41 8 3 12 12 8 21 -4
12 -3 13 10 2 24 -20 18 -58 -17 -101 -31 -39 -48 -49 -48 -28 0 6 -9 22 -20
36 -14 18 -20 21 -20 10 0 -9 5 -19 10 -22 6 -4 10 -16 8 -28 -5 -36 27 -31
67 10 20 21 34 32 29 24 -5 -11 -3 -13 9 -8 12 4 24 -5 42 -31 40 -58 31 -124
-24 -188 -16 -17 -31 -38 -33 -46 -4 -10 -9 -9 -25 4 -11 10 -41 22 -68 27
-73 14 -85 44 -32 85 21 17 26 26 16 26 -9 0 -37 -16 -63 -35 -48 -37 -60 -53
-27 -35 13 7 22 7 26 0 9 -14 -3 -30 -22 -30 -27 0 -85 -41 -79 -57 3 -8 1
-11 -4 -8 -13 8 -23 -17 -18 -47 3 -21 4 -21 20 11 10 18 15 37 12 42 -8 14
60 39 103 38 53 0 103 -20 121 -47 14 -21 13 -22 -12 -22 -34 0 -83 -25 -121
-62 -45 -44 -95 -50 -95 -11 0 9 9 32 21 52 l21 36 -31 -35 c-17 -19 -31 -42
-31 -52 0 -19 36 -48 60 -48 9 0 24 -18 34 -40 17 -39 58 -80 80 -80 6 1 2 9
-10 18 -30 26 -46 60 -38 84 4 14 2 18 -5 14 -17 -11 -13 5 9 41 21 35 56 57
108 66 l33 7 -20 -29 c-11 -15 -28 -34 -38 -42 -17 -13 -17 -12 0 14 21 32 16
47 -8 27 -45 -37 -61 -133 -27 -163 18 -16 18 -16 15 11 -7 52 10 55 57 12 24
-22 45 -38 47 -37 5 6 -19 71 -30 82 -6 7 -7 0 -3 -20 l6 -30 -15 25 c-21 36
-18 59 10 110 14 25 36 68 49 96 25 54 41 64 107 64 21 0 47 -8 62 -20 14 -11
30 -20 36 -20 15 0 14 -27 -1 -33 -14 -5 -49 10 -59 26 -4 5 -26 11 -50 13
-43 4 -43 3 39 -36 61 -29 82 -44 82 -58 0 -39 -23 -44 -89 -22 -33 11 -68 20
-78 20 -18 -1 56 -31 130 -53 20 -6 37 -16 37 -23 0 -22 -29 -36 -62 -30 -18
3 -51 8 -73 11 l-40 6 40 -17 c22 -9 55 -18 73 -21 18 -3 35 -9 38 -14 7 -12
-100 -62 -123 -57 -27 5 -20 22 12 30 25 5 22 6 -15 5 -38 -2 -46 1 -57 23
-10 19 -13 21 -13 7 0 -10 5 -27 10 -38 8 -14 7 -19 -2 -19 -7 0 7 -10 31 -21
46 -20 83 -19 126 5 23 13 54 45 56 58 3 19 5 24 12 35 12 20 17 73 6 73 -26
0 7 20 54 34 28 8 78 32 110 52 90 56 73 55 -88 -10 -37 -15 -37 -16 -7 -10
43 8 41 -2 -4 -16 -30 -10 -38 -10 -45 1 -14 22 -10 39 7 39 34 0 157 75 214
131 60 60 102 132 141 246 27 79 51 230 44 274 -4 23 -2 40 5 44 6 4 15 17 20
29 7 16 9 10 11 -29 1 -27 1 -54 0 -58 -1 -5 3 -6 9 -2 5 3 10 18 11 33 1 26
2 25 12 -7 22 -68 -23 -261 -91 -396 -41 -82 -112 -184 -167 -240 -50 -51
-136 -104 -172 -106 -11 0 -13 -3 -5 -6 7 -3 31 2 53 11 22 9 45 14 51 10 13
-9 134 116 185 192 87 127 166 320 180 435 6 50 -10 135 -34 183 -15 28 -14
29 8 23 18 -5 13 3 -22 39 -35 35 -39 44 -24 44 46 0 102 -25 137 -60 31 -31
38 -45 38 -78 0 -48 -8 -72 -24 -72 -6 0 -12 -17 -13 -37 l-2 -37 30 54 c45
83 81 116 113 104 27 -10 18 -47 -20 -87 -36 -37 -60 -45 -33 -10 13 16 12 17
-4 4 -10 -8 -15 -21 -13 -28 3 -8 0 -26 -8 -41 -29 -57 -28 -77 1 -32 16 25
37 51 46 59 9 7 15 17 12 21 -7 11 68 74 110 94 36 17 75 21 75 8 0 -5 -10
-14 -23 -19 -50 -23 -138 -157 -167 -253 -10 -36 -24 -85 -30 -109 -6 -23 -14
-41 -16 -38 -5 4 4 42 22 105 15 51 -53 -94 -72 -153 l-22 -70 -2 65 c0 36 -7
82 -15 103 -11 33 -11 38 1 33 17 -6 17 -5 3 31 l-12 28 -7 -34 c-5 -18 -4
-47 1 -65 23 -78 1 -226 -39 -258 -14 -11 -15 -10 -8 7 17 42 24 74 30 136 8
71 -7 63 -18 -9 -7 -48 -42 -123 -88 -189 -38 -56 -14 -58 35 -4 19 22 43 41
53 43 10 2 29 19 42 38 13 19 27 36 31 38 4 1 17 -20 30 -47 12 -27 40 -66 63
-87 43 -38 44 -54 5 -78 -12 -8 -22 -4 -43 17 -34 34 -61 41 -127 34 -74 -9
-119 -49 -130 -113 -17 -99 -6 -189 31 -253 19 -34 61 -53 125 -58 62 -5 67
-4 108 28 77 60 93 88 103 172 5 49 3 63 -14 87 -11 16 -29 32 -40 35 -30 9
-24 25 9 25 35 0 91 -58 91 -95 0 -14 5 -25 10 -25 6 0 10 -19 11 -42 l1 -43
13 30 c27 58 -16 153 -79 176 -34 12 -34 13 -18 38 49 80 114 113 183 92 49
-15 89 -62 89 -107 0 -36 -15 -46 -24 -16 -9 28 -47 60 -81 67 -24 5 -22 3 12
-14 29 -13 48 -31 59 -55 16 -32 16 -36 0 -60 -17 -26 -50 -35 -61 -16 -3 6 1
10 9 10 8 0 18 5 22 12 5 8 2 9 -10 5 -11 -4 -33 9 -71 43 -55 50 -77 58 -104
41 -11 -7 -4 -12 25 -20 62 -17 96 -59 102 -125 4 -45 0 -60 -17 -85 -14 -20
-17 -29 -8 -25 17 6 33 37 45 83 6 28 14 37 40 43 40 11 72 69 72 132 0 38 -5
48 -35 75 -20 17 -42 31 -50 31 -15 0 -40 38 -31 47 3 4 16 -2 27 -13 22 -19
22 -19 11 3 -11 19 -70 63 -86 63 -4 0 2 -12 13 -26 32 -41 27 -59 -21 -73
-24 -7 -58 -21 -77 -32 -30 -18 -35 -18 -57 -4 -40 26 -76 100 -78 158 -1 44
4 58 28 89 l30 36 24 -19 c29 -22 55 -24 71 -6 8 11 5 13 -18 9 -50 -7 -89 54
-62 97 5 8 14 10 22 6 11 -6 12 -5 2 6 -19 19 -16 32 18 88 27 43 34 49 50 40
11 -5 26 -24 33 -42 14 -31 14 -31 16 -7 l1 25 10 -25 c6 -14 8 -41 5 -60 -5
-35 -5 -35 9 -10 14 24 14 24 15 -23 0 -49 -17 -94 -45 -117 -14 -12 -15 -10
-5 15 14 38 8 40 -21 8 -13 -14 -18 -23 -11 -19 15 9 16 -6 0 -22 -25 -25 20
-12 53 15 l32 27 -17 -32 c-12 -24 -23 -32 -44 -32 -21 0 -24 -2 -12 -10 30
-19 57 -11 70 20 17 41 39 35 69 -20 17 -31 25 -59 24 -93 -1 -37 6 -59 24
-86 l25 -36 -7 70 c-11 115 -30 170 -72 204 -34 28 -36 33 -34 81 2 66 -30
141 -75 175 -19 14 -34 34 -34 43 0 9 22 43 50 75 52 61 54 76 15 97 -20 11
-33 11 -65 1 -34 -10 -43 -9 -65 5 -17 11 -35 14 -60 10 -21 -4 -35 -3 -35 3
0 20 -66 85 -105 102 -22 10 -54 19 -72 19 -38 0 -48 12 -33 40 16 31 -5 123
-38 161 -30 36 -139 129 -151 129 -4 0 -16 -9 -26 -20z m184 -344 c-11 -24
-29 -36 -29 -18 0 12 31 54 36 49 3 -2 -1 -16 -7 -31z m-331 4 c7 0 10 -4 7
-10 -3 -5 -2 -10 4 -10 6 0 26 -31 45 -70 19 -38 32 -70 29 -70 -3 0 -31 19
-64 41 -51 36 -59 46 -59 73 0 18 -6 38 -12 45 -11 11 -9 13 12 7 14 -3 31 -6
38 -6z m288 -35 c-2 -43 -6 -48 -57 -85 -30 -22 -57 -40 -62 -40 -11 0 63 143
82 157 30 23 39 15 37 -32z m-400 13 c-9 -13 -33 -33 -54 -45 -32 -20 -34 -23
-13 -23 18 0 22 -4 16 -17 -17 -42 -17 -162 0 -239 24 -111 71 -246 116 -338
22 -43 39 -84 39 -92 0 -22 -19 -26 -52 -10 -41 21 -43 20 -24 -9 22 -34 6
-32 -28 4 -40 41 -57 110 -63 249 -3 71 -10 122 -16 122 -11 0 -3 -247 9 -287
10 -35 -10 -27 -28 10 -8 17 -30 82 -47 142 -18 61 -37 114 -42 119 -15 16
-11 -17 10 -83 10 -34 16 -61 12 -61 -12 0 -29 43 -51 131 -28 107 -61 169
-133 246 l-59 63 32 0 c42 0 86 -32 110 -81 11 -21 23 -39 26 -39 12 0 -7 51
-26 70 -24 24 -25 34 -4 54 26 27 42 18 85 -46 30 -48 39 -56 34 -34 -3 15
-13 35 -20 43 -20 20 -19 42 5 80 28 46 107 91 163 93 17 0 17 -2 3 -22z m49
-7 c3 -5 1 -12 -4 -16 -11 -6 -8 -47 5 -79 11 -29 -13 -11 -30 22 -16 31 -10
82 10 82 7 0 15 -4 19 -9z m420 -12 c9 -26 0 -58 -24 -89 -26 -33 -38 -19 -15
19 14 24 15 33 5 44 -7 9 -8 18 -2 21 5 3 12 0 15 -6 3 -7 3 -3 0 10 -7 28 12
29 21 1z m-259 -26 c28 -21 33 -22 44 -7 16 18 74 50 69 36 -4 -9 -62 -124
-67 -132 -2 -2 -7 2 -12 10 -7 10 -10 11 -10 3 0 -28 -17 -10 -48 52 -18 36
-32 68 -32 71 0 6 16 -3 56 -33z m-112 -58 c11 -26 23 -37 46 -41 48 -10 47
-26 -1 -22 -36 3 -46 8 -62 36 -17 28 -18 62 -2 62 2 0 11 -16 19 -35z m311 3
c-16 -53 -34 -68 -78 -67 l-42 0 42 19 c29 13 44 27 49 44 3 15 13 26 21 26
10 0 12 -6 8 -22z m-391 -10 c3 -13 8 -59 11 -103 13 -174 50 -288 132 -408
56 -82 62 -108 16 -66 -15 14 -24 17 -21 9 4 -8 9 -23 13 -32 5 -12 2 -18 -8
-18 -18 0 -62 63 -91 132 -12 29 -29 67 -38 83 -49 93 -99 361 -69 379 8 5 11
-9 12 -46 1 -29 5 -64 10 -78 6 -20 8 -15 7 25 -2 93 2 145 12 145 5 0 12 -10
14 -22z m230 -61 c-3 -9 11 -12 51 -12 47 1 55 -1 49 -14 -4 -9 -9 -27 -11
-41 -4 -21 0 -18 18 13 25 41 44 50 33 15 -9 -28 -45 -78 -56 -78 -5 0 -17
-20 -28 -45 -19 -45 -20 -45 -69 -45 -39 0 -51 4 -55 18 -4 10 -26 49 -51 87
-25 37 -45 72 -45 77 0 19 24 1 42 -32 11 -22 18 -28 18 -17 0 10 -4 27 -10
37 -8 15 -5 19 26 24 19 4 44 4 56 0 16 -5 20 -3 15 9 -6 17 1 29 14 21 4 -2
6 -10 3 -17z m-134 -155 c0 -9 -7 -8 -25 4 -16 11 -25 26 -25 43 l0 26 25 -30
c13 -16 24 -36 25 -43z m300 53 c0 -17 -56 -83 -63 -75 -7 6 45 89 56 90 4 0
7 -7 7 -15z m-235 -145 c16 -18 14 -19 -30 -26 -26 -3 -50 -3 -54 2 -7 8 -31
84 -31 97 0 9 97 -53 115 -73z m230 43 c-9 -39 -70 -163 -95 -193 l-20 -25
-20 25 c-23 29 -25 49 -8 85 9 20 19 25 47 26 20 0 29 3 21 6 -8 2 -21 7 -29
9 -18 6 8 36 59 70 46 30 54 30 45 -3z m-141 -46 c16 -12 16 -14 -7 -35 l-24
-22 -19 21 c-18 20 -18 21 1 35 23 17 27 17 49 1z m-62 -54 c22 -20 23 -42 3
-90 -15 -35 -16 -35 -35 -18 -11 10 -32 38 -46 63 -21 36 -24 46 -13 53 23 14
71 10 91 -8z m68 -117 l28 -23 -30 -37 c-30 -37 -58 -47 -58 -21 0 8 -5 15
-11 15 -5 0 -8 4 -4 9 3 5 1 12 -5 16 -11 7 28 63 44 64 4 1 21 -10 36 -23z
m355 -300 c20 -9 41 -28 51 -48 9 -18 30 -49 46 -69 32 -40 46 -97 29 -125 -9
-16 -10 -13 -6 16 4 29 3 28 -8 -10 -18 -58 -35 -90 -49 -90 -9 0 -9 3 0 12 7
7 11 23 11 38 -1 20 -2 21 -6 5 -8 -28 -42 -55 -72 -55 -18 0 -22 -3 -12 -9 7
-5 22 -6 32 -4 25 7 24 -3 -1 -17 -22 -12 -135 12 -167 35 -17 12 -16 14 7 24
14 5 52 18 85 27 33 9 54 19 46 22 -7 2 -42 -4 -78 -13 -58 -16 -66 -16 -80
-2 -18 18 -11 47 12 47 8 0 43 16 77 36 54 31 58 35 30 30 -19 -3 -46 -15 -62
-26 -15 -11 -35 -20 -44 -20 -19 0 -41 42 -33 63 3 8 45 35 94 60 48 26 80 46
70 47 -10 0 -27 -5 -38 -10 -15 -9 -19 -7 -20 7 0 15 -2 14 -9 -4 -5 -12 -18
-27 -30 -33 -21 -11 -60 -5 -60 9 0 13 63 54 94 62 46 11 54 10 91 -5z"/>
<path d="M1432 1951 c2 -8 13 -20 25 -28 17 -12 23 -11 44 6 13 11 20 23 16
28 -5 4 -13 0 -18 -10 -13 -22 -27 -22 -52 1 -14 12 -19 13 -15 3z"/>
<path d="M1426 1907 c-13 -10 -5 -12 50 -13 46 -1 61 2 49 9 -9 5 -25 7 -34 4
-10 -2 -25 -1 -33 4 -9 5 -22 3 -32 -4z"/>
<path d="M1453 1873 c4 -3 2 -12 -3 -18 -7 -9 -2 -12 20 -11 40 1 43 36 3 36
-14 0 -23 -3 -20 -7z"/>
<path d="M1840 1154 c25 -7 52 -11 60 -8 20 9 -22 22 -70 22 l-35 1 45 -15z"/>
<path d="M1693 1441 c-27 -43 -82 -83 -172 -126 -79 -38 -98 -63 -38 -51 17 3
64 23 105 43 74 38 91 56 122 138 13 33 6 31 -17 -4z"/>
<path d="M1957 882 c-10 -10 -17 -28 -17 -39 0 -14 -12 -26 -39 -37 -35 -17
-41 -17 -69 -2 -42 22 -78 20 -118 -5 l-34 -21 -26 21 c-21 17 -38 20 -99 17
-41 -1 -80 -8 -89 -15 -12 -10 -20 -9 -43 2 -18 10 -45 13 -73 11 -25 -3 -58
-5 -75 -4 -16 0 -61 0 -100 0 -115 -1 -118 -1 -160 4 -23 2 -51 -2 -67 -10
-37 -19 -38 -18 -38 16 0 42 -36 64 -92 56 -24 -3 -50 -6 -58 -6 -8 0 -34 3
-58 6 -30 4 -49 2 -67 -10 -24 -16 -25 -19 -25 -145 0 -147 5 -157 74 -154 89
4 102 4 133 -2 21 -5 43 -2 63 9 28 14 35 14 61 1 35 -18 76 -19 109 -1 21 12
29 12 52 0 38 -20 71 -17 102 7 22 18 26 27 21 53 -5 28 -4 29 7 11 7 -11 28
-35 45 -53 31 -32 36 -34 85 -30 29 2 61 8 71 12 14 7 17 3 17 -16 0 -35 30
-58 75 -58 30 0 44 7 69 33 17 19 44 41 58 51 27 17 28 17 54 -3 35 -27 93
-28 127 0 l26 20 29 -21 c26 -19 38 -21 103 -16 41 3 83 5 94 4 25 -1 73 0
105 1 14 1 57 -1 95 -3 102 -7 115 4 115 97 0 79 -12 110 -51 139 -22 17 -33
18 -75 10 -27 -5 -57 -13 -66 -17 -15 -6 -16 -2 -11 29 4 27 1 42 -12 56 -20
23 -74 27 -93 8 -10 -10 -17 -10 -32 0 -29 18 -84 15 -103 -6z m93 -141 c0
-94 3 -131 13 -135 6 -3 -10 -5 -38 -5 -27 0 -59 -2 -70 -6 -14 -4 -30 1 -48
15 -23 19 -27 29 -27 75 0 69 21 97 73 97 35 0 37 1 37 34 0 19 -4 34 -10 34
-5 0 -10 5 -10 10 0 6 18 10 40 10 l40 0 0 -129z m115 99 c0 -20 -6 -26 -28
-28 -18 -2 -29 2 -33 12 -11 28 4 48 33 44 22 -2 28 -8 28 -28z m-1415 -2 c0
-4 -7 -8 -15 -8 -11 0 -15 -12 -15 -50 l0 -50 40 0 40 0 0 50 c0 38 -4 50 -15
50 -8 0 -15 4 -15 8 0 5 27 8 60 8 33 0 60 -2 60 -4 0 -2 -7 -10 -15 -18 -22
-22 -21 -186 1 -208 14 -15 10 -16 -48 -15 -35 1 -55 3 -45 6 13 4 17 15 17
59 l0 54 -40 0 -40 0 0 -54 c0 -44 4 -55 18 -59 9 -3 -12 -5 -48 -5 -36 0 -59
2 -52 5 15 6 18 223 2 223 -5 0 -10 3 -10 8 0 4 27 8 60 8 33 0 60 -3 60 -8z
m294 -69 c15 -12 26 -30 26 -45 0 -21 -4 -24 -40 -24 -22 0 -40 5 -40 10 0 6
7 10 16 10 10 0 14 7 12 23 -2 12 -10 22 -18 22 -11 0 -16 -14 -18 -53 -4 -77
26 -105 71 -64 18 16 19 16 16 -2 -6 -30 -53 -60 -83 -52 -44 11 -66 41 -66
89 0 47 20 84 54 97 32 13 41 12 70 -11z m380 -10 c29 -27 28 -111 -2 -141
-31 -31 -93 -31 -124 0 -30 29 -32 110 -4 140 31 35 94 36 130 1z m221 -2 c18
-25 20 -86 4 -120 -13 -29 -54 -50 -80 -42 -15 5 -19 1 -19 -15 0 -11 7 -23
15 -26 30 -12 14 -19 -40 -19 -30 0 -55 3 -55 8 0 4 5 7 10 7 15 0 13 203 -2
218 -9 9 -3 12 30 12 27 0 42 -5 43 -12 0 -7 0 -46 -1 -85 -1 -66 1 -73 18
-73 25 0 32 18 32 87 0 46 -3 56 -20 60 -25 7 -26 20 -2 25 27 6 51 -3 67 -25z
m182 9 c7 -6 14 -22 15 -36 3 -23 0 -25 -44 -28 -51 -3 -53 -6 -38 -46 11 -31
54 -36 69 -9 5 10 12 15 16 11 11 -10 -18 -47 -45 -58 -68 -28 -122 40 -99
124 16 57 86 80 126 42z m521 -4 c7 -9 12 -45 12 -85 0 -43 4 -66 10 -62 6 3
10 2 10 -4 0 -5 -34 -9 -80 -9 -69 0 -80 2 -85 19 -11 33 4 56 45 72 35 13 40
20 40 46 0 25 -4 31 -21 31 -18 0 -20 -2 -9 -16 11 -12 10 -18 -3 -31 -21 -21
-49 -9 -45 19 6 45 95 59 126 20z m-1165 12 c3 -4 3 -14 -2 -23 -5 -9 -6 -44
-3 -78 3 -46 8 -63 21 -66 9 -3 -13 -5 -49 -6 -49 0 -61 2 -47 10 13 8 17 24
17 79 0 55 -4 71 -17 79 -14 8 -8 10 28 11 25 0 49 -3 52 -6z m62 -24 c0 -18
-6 -26 -22 -28 -13 -2 -23 0 -24 5 0 4 -2 18 -3 31 -2 19 1 23 23 20 20 -2 26
-9 26 -28z m925 -54 c0 -58 4 -86 13 -89 6 -3 -13 -6 -42 -6 -43 -1 -52 2 -43
11 7 7 12 40 12 78 0 38 -5 71 -12 78 -9 9 -3 12 30 12 l42 0 0 -84z"/>
<path d="M1945 749 c-10 -32 -7 -121 4 -132 7 -7 15 -6 26 3 11 9 15 31 15 81
0 62 -2 69 -19 69 -11 0 -23 -9 -26 -21z"/>
<path d="M1340 751 c-26 -49 0 -164 30 -134 28 27 20 153 -9 153 -6 0 -15 -9
-21 -19z"/>
<path d="M1760 751 c-16 -32 -12 -43 13 -35 29 9 30 9 22 33 -8 26 -21 27 -35
2z"/>
<path d="M2270 669 c-9 -15 -8 -24 0 -35 17 -20 30 -8 30 27 0 34 -14 38 -30
8z"/>
</g>
</svg>
